HIERARCHY
ROOT Hips
{
	OFFSET 0.00000 0.00000 0.00000
	CHANNELS 6 Xposition Yposition Zposition Zrotation Yrotation Xrotation 
	JOINT LHipJoint
	{
		OFFSET 0 0 0
		CHANNELS 3 Zrotation Yrotation Xrotation
		JOINT LeftHip
		{
			OFFSET 1.48416 -1.82041 0.59464
			CHANNELS 3 Zrotation Yrotation Xrotation
			JOINT LeftKnee
			{
				OFFSET 2.43280 -6.68407 0.00000
				CHANNELS 3 Zrotation Yrotation Xrotation
				JOINT LeftAnkle
				{
					OFFSET 2.68325 -7.37216 0.00000
					CHANNELS 3 Zrotation Yrotation Xrotation
					JOINT LeftToe
					{
						OFFSET 0.15365 -0.42214 1.91990
						CHANNELS 3 Zrotation Yrotation Xrotation
						End Site
						{
							OFFSET 0.00000 -0.00000 0.99320
						}
					}
				}
			}
		}
	}
	JOINT RHipJoint
	{
		OFFSET 0 0 0
		CHANNELS 3 Zrotation Yrotation Xrotation
		JOINT RightHip
		{
			OFFSET -1.70852 -1.82040 0.59464
			CHANNELS 3 Zrotation Yrotation Xrotation
			JOINT RightKnee
			{
				OFFSET -2.50396 -6.87957 0.00000
				CHANNELS 3 Zrotation Yrotation Xrotation
				JOINT RightAnkle
				{
					OFFSET -2.67204 -7.34139 0.00000
					CHANNELS 3 Zrotation Yrotation Xrotation
					JOINT RightToe
					{
						OFFSET -0.17346 -0.47657 2.02009
						CHANNELS 3 Zrotation Yrotation Xrotation
						End Site
						{
							OFFSET -0.00000 -0.00000 1.04609
						}
					}
				}
			}
		}
	}
	JOINT lowerback
	{
		OFFSET 0 0 0
		CHANNELS 3 Zrotation Yrotation Xrotation
		JOINT Chest
		{
			OFFSET -0.01022 1.99636 -0.30653
			CHANNELS 3 Zrotation Yrotation Xrotation
			JOINT Chest2
			{
				OFFSET -0.01683 2.01212 0.04808
				CHANNELS 3 Zrotation Yrotation Xrotation
				JOINT lowerneck
				{
					OFFSET 0 0 0
					CHANNELS 3 Zrotation Yrotation Xrotation
					JOINT Neck
					{
						OFFSET -0.03080 1.91178 0.03911
						CHANNELS 3 Zrotation Yrotation Xrotation
						JOINT Head
						{
							OFFSET 0.10605 1.89839 -0.23433
							CHANNELS 3 Zrotation Yrotation Xrotation
							End Site
							{
								OFFSET 0.03474 1.92469 -0.08609
							}
						}
					}
				}
				JOINT LeftCollar
				{
					OFFSET 0 0 0
					CHANNELS 3 Zrotation Yrotation Xrotation
					JOINT LeftShoulder
					{
						OFFSET 3.78977 1.27972 -0.24661
CHANNELS 3 Zrotation Xrotation Yrotation
						JOINT LeftElbow
						{
OFFSET 0 -5.641470 -0.000000
CHANNELS 3 Zrotation Xrotation Yrotation
							JOINT LeftWrist
							{
OFFSET 0 -2.864440 -0.000000
CHANNELS 3 Zrotation Xrotation Yrotation
								JOINT lhand
								{
									OFFSET 0 0 0
CHANNELS 3 Zrotation Xrotation Yrotation
									JOINT LFingers
									{
OFFSET 0 -0.722120 -0.000000
CHANNELS 3 Zrotation Xrotation Yrotation
										End Site
										{
OFFSET 0 -0.582190 -0.000000
										}
									}
								}
								JOINT LThumb
								{
OFFSET 0 0.000000 0.000000
CHANNELS 3 Zrotation Xrotation Yrotation
									End Site
									{
OFFSET 0 -0.591080 0.591080
									}
								}
							}
						}
					}
				}
				JOINT RightCollar
				{
					OFFSET 0 0 0
					CHANNELS 3 Zrotation Yrotation Xrotation
					JOINT RightShoulder
					{
						OFFSET -3.41176 1.18605 -0.57927
CHANNELS 3 Zrotation Xrotation Yrotation
						JOINT RightElbow
						{
OFFSET 0 -5.447290 -0.000000
CHANNELS 3 Zrotation Xrotation Yrotation
							JOINT RightWrist
							{
OFFSET 0 -3.088210 -0.000000
CHANNELS 3 Zrotation Xrotation Yrotation
								JOINT rhand
								{
									OFFSET 0 0 0
CHANNELS 3 Zrotation Xrotation Yrotation
									JOINT RFingers
									{
OFFSET 0 -0.821050 -0.000000
CHANNELS 3 Zrotation Xrotation Yrotation
										End Site
										{
OFFSET 0 -0.661950 -0.000000
										}
									}
								}
								JOINT RThumb
								{
OFFSET 0 0.000000 0.000000
CHANNELS 3 Zrotation Xrotation Yrotation
									End Site
									{
OFFSET 0 -0.672060 0.672060
									}
								}
							}
						}
					}
				}
			}
		}
	}
}
MOTION
Frames: 9
Frame Time: 0.008333333333333333
3.490600 17.688300 0.240300 -46.590700 89.834300 -48.451500 0.000000 0.000000 0.000000 -16.030400 1.735300 3.580800 0.167900 2.639400 7.276300 0.280800 -3.489600 -9.418400 0.099100 -2.030500 -5.590000 0.000000 0.000000 0.000000 19.136500 -0.122900 3.010600 -0.603400 -4.972500 13.830100 -1.118400 -0.457900 -20.162900 -0.176000 2.702200 -7.450800 2.462300 -0.002900 6.047400 -0.841100 0.149200 0.576000 -2.263400 0.047100 -2.788900 -4.973300 -4.966100 -3.673600 8.213900 -6.751800 4.254800 3.346300 -3.223800 2.540700 -0.000000 -0.000000 0.000000 7.208100 4.175600 -42.344200 12.734800 -20.897400 2.357900 9.870200 -39.452800 -6.743500 0.000000 0.000000 0.000000 -7.125000 0.000000 0.000000 -14.183400 36.493900 -3.042600 -0.000000 -0.000000 0.000000 -1.064400 4.984100 17.174000 -12.483800 -20.526200 -2.269100 -3.994900 11.454800 -10.071000 0.000000 0.000000 0.000000 7.125000 0.000000 -0.000000 16.246700 20.058400 10.098200
3.492421 17.686420 0.239342 -37.206103 89.817260 -39.066875 0.000000 0.000000 0.000000 -16.043110 1.752373 3.534551 0.172343 2.674279 7.373191 0.282822 -3.533137 -9.451421 0.092568 -1.962392 -5.401719 0.000000 0.000000 0.000000 19.132054 -0.168932 3.012058 -0.601999 -4.966581 13.813261 -1.107582 -0.571970 -20.107984 -0.240047 3.149076 -8.694484 2.456041 0.020681 5.990050 -0.839639 0.178803 0.596538 -2.260505 0.063012 -2.733866 -4.996670 -4.975873 -3.759883 8.143103 -6.763273 4.347012 3.323836 -3.229116 2.586075 0.000000 0.000000 0.000000 7.300223 4.185792 -42.737830 12.865404 -21.089750 2.404666 9.981739 -39.724827 -6.619946 0.000000 0.000000 0.000000 -7.125000 0.000000 0.000000 -14.067065 36.379073 -3.056953 0.000000 0.000000 0.000000 -1.091407 4.977869 17.133762 -12.461979 -20.493845 -2.261425 -4.027467 11.523833 -10.160995 0.000000 0.000000 0.000000 7.125000 0.000000 0.000000 16.215887 19.971052 10.110668
3.490294 17.681958 0.239400 -45.771629 89.833950 -47.663293 0.000000 0.000000 0.000000 -16.036127 1.684970 3.442179 0.183503 2.759040 7.608666 0.286288 -3.632271 -9.510412 0.095119 -1.988609 -5.474162 0.000000 0.000000 0.000000 19.150324 -0.239801 3.050407 -0.599007 -4.954517 13.778829 -1.099774 -0.651251 -20.067603 -0.304872 3.549655 -9.813041 2.439435 0.008185 5.997672 -0.849743 0.161159 0.607917 -2.260127 0.054648 -2.727411 -4.930662 -4.955926 -3.642846 8.072991 -6.733641 4.232791 3.290531 -3.219216 2.517005 0.000000 0.000000 0.000000 7.353193 4.213172 -42.816326 12.969320 -21.242248 2.442121 10.047548 -39.815106 -6.778561 0.000000 0.000000 0.000000 -7.125000 0.000000 0.000000 -14.044586 36.538993 -2.995432 0.000000 0.000000 0.000000 -1.090464 4.997690 17.187161 -12.444932 -20.468490 -2.255458 -3.877868 11.595321 -9.964713 0.000000 0.000000 0.000000 7.125000 0.000000 0.000000 16.337535 20.163260 10.119228
3.486636 17.684529 0.239516 -40.614336 89.843940 -42.525010 0.000000 0.000000 0.000000 -16.058242 1.702406 3.486650 0.179261 2.727310 7.520381 0.285031 -3.576814 -9.489375 0.097157 -2.007032 -5.525094 0.000000 0.000000 0.000000 19.141745 -0.140572 3.043238 -0.604341 -4.976263 13.840842 -1.105324 -0.708747 -20.139736 -0.302348 3.519475 -9.730222 2.358137 0.020989 6.030840 -0.837210 0.173958 0.598339 -2.202629 0.061484 -2.755465 -4.921450 -4.942914 -3.659566 8.053356 -6.719260 4.308946 3.282291 -3.210951 2.543127 0.000000 0.000000 0.000000 7.363951 4.201565 -42.915012 12.951026 -21.215398 2.435572 10.091800 -39.879667 -6.631631 0.000000 0.000000 0.000000 -7.125000 0.000000 0.000000 -13.978942 36.396973 -3.030613 0.000000 0.000000 0.000000 -1.078402 5.027799 16.930703 -12.407069 -20.412289 -2.242221 -3.641924 11.747936 -9.978399 0.000000 0.000000 0.000000 7.125000 0.000000 0.000000 16.499225 20.155307 10.231355
3.484026 17.681237 0.240768 -56.980439 89.849402 -58.941811 0.000000 0.000000 0.000000 -16.025674 1.622344 3.383674 0.193843 2.835199 7.820260 0.291833 -3.683371 -9.603056 0.091045 -1.946030 -5.356586 0.000000 0.000000 0.000000 19.180891 -0.190510 3.089397 -0.605579 -4.981149 13.854815 -1.107694 -0.748460 -20.175750 -0.312681 3.594087 -9.937530 2.343644 0.016339 6.080530 -0.827495 0.168363 0.595955 -2.184260 0.058481 -2.786015 -4.935683 -4.926977 -3.567277 8.087927 -6.700103 4.288191 3.299712 -3.202914 2.520057 0.000000 0.000000 0.000000 7.431578 4.285126 -43.096517 12.981189 -21.259641 2.446452 10.176194 -39.907643 -6.639103 0.000000 0.000000 0.000000 -7.125000 0.000000 0.000000 -13.911048 36.409376 -3.010838 0.000000 0.000000 0.000000 -1.053787 5.023890 16.684608 -12.314031 -20.273997 -2.209956 -3.602668 11.753399 -10.111969 0.000000 0.000000 0.000000 7.125000 0.000000 0.000000 16.513428 20.027920 10.290532
3.479124 17.679747 0.240684 -63.683535 89.782530 -65.679894 0.000000 0.000000 0.000000 -15.956104 1.601943 3.299902 0.204733 2.913250 8.037242 0.295079 -3.749419 -9.656910 0.091300 -1.949153 -5.365076 0.000000 0.000000 0.000000 19.263758 -0.109420 3.126619 -0.604248 -4.975877 13.839679 -1.109131 -0.728748 -20.181622 -0.291366 3.471200 -9.593470 2.360880 0.005588 6.126287 -0.793517 0.157224 0.605884 -2.158154 0.052962 -2.802084 -4.912405 -4.900645 -3.630912 8.066324 -6.665842 4.341154 3.288167 -3.183974 2.544982 0.000000 0.000000 0.000000 7.442846 4.260333 -43.018437 12.963229 -21.233407 2.439929 10.180155 -39.758257 -6.660568 0.000000 0.000000 0.000000 -7.125000 0.000000 0.000000 -13.911973 36.430661 -3.003601 0.000000 0.000000 0.000000 -1.097724 5.066998 16.841537 -12.300970 -20.254463 -2.205355 -3.588992 11.572976 -10.061793 0.000000 0.000000 0.000000 7.125000 0.000000 0.000000 16.527684 20.076364 10.281387
3.476757 17.683019 0.240517 -33.098847 89.879519 -35.140513 0.000000 0.000000 0.000000 -16.081229 1.700744 3.608043 0.179394 2.728170 7.522748 0.284051 -3.628012 -9.473164 0.105553 -2.094706 -5.767493 0.000000 0.000000 0.000000 19.137042 0.005619 3.059033 -0.628411 -5.072374 14.115157 -1.133872 -0.666004 -20.378878 -0.228724 3.073301 -8.483228 2.211430 0.005353 6.128373 -0.823112 0.146493 0.642126 -2.103624 0.050241 -2.766675 -4.853418 -4.868679 -3.641989 8.028268 -6.622724 4.321921 3.265515 -3.162487 2.532678 0.000000 0.000000 0.000000 7.504453 4.221207 -43.108404 12.949065 -21.212567 2.434804 10.206434 -39.799669 -6.554096 0.000000 0.000000 0.000000 -7.125000 0.000000 0.000000 -13.869473 36.327357 -3.029902 0.000000 0.000000 0.000000 -1.093667 4.970462 16.753189 -12.241858 -20.166451 -2.185002 -3.478956 11.577033 -10.182391 0.000000 0.000000 0.000000 7.125000 0.000000 0.000000 16.591901 19.962930 10.369146
3.472561 17.683128 0.240803 -38.927835 89.925438 -40.981886 0.000000 0.000000 0.000000 -16.093254 1.757158 3.840306 0.158495 2.565352 7.070853 0.271434 -3.530952 -9.259843 0.109427 -2.132377 -5.871695 0.000000 0.000000 0.000000 19.109949 0.070937 2.929296 -0.651865 -5.164545 14.378540 -1.147625 -0.550205 -20.457183 -0.202201 2.893360 -7.982158 2.157755 0.014812 6.114991 -0.813468 0.155636 0.664307 -2.064032 0.056186 -2.736045 -4.931179 -4.877334 -3.630560 8.074203 -6.630877 4.282681 3.296034 -3.167588 2.523926 0.000000 0.000000 0.000000 7.589545 4.144603 -43.475736 12.965776 -21.236994 2.440887 10.325358 -39.861655 -6.711056 0.000000 0.000000 0.000000 -7.125000 0.000000 0.000000 -13.802584 36.488964 -2.958618 0.000000 0.000000 0.000000 -1.106827 5.102951 16.824759 -12.455615 -20.484307 -2.259198 -3.398770 11.551820 -10.347483 0.000000 0.000000 0.000000 7.125000 0.000000 0.000000 16.631213 19.806279 10.457310
3.465505 17.683188 0.238083 1.721947 90.078280 -0.392475 0.000000 0.000000 0.000000 -16.141251 1.602225 3.811081 0.165069 2.617542 7.215590 0.270196 -3.574689 -9.240002 0.070905 -1.718131 -4.727211 0.000000 0.000000 0.000000 19.047390 -0.011236 2.911239 -0.661087 -5.200102 14.480095 -1.152353 -0.640283 -20.532798 -0.225212 3.052202 -8.424319 2.127372 0.007547 6.149154 -0.813518 0.145179 0.713778 -2.046112 0.052546 -2.704659 -5.025552 -4.884788 -3.663637 8.163661 -6.640199 4.298141 3.344028 -3.170619 2.544961 0.000000 0.000000 0.000000 7.869413 3.985523 -44.811927 13.108599 -21.446111 2.492859 10.378392 -40.558102 -7.153331 0.000000 0.000000 0.000000 -7.125000 0.000000 0.000000 -13.847023 36.928138 -2.815903 0.000000 0.000000 0.000000 -1.310291 5.690104 18.318414 -13.449762 -21.941861 -2.619440 -3.215782 10.614192 -10.189501 0.000000 0.000000 0.000000 7.125000 0.000000 0.000000 16.772436 19.961837 10.492652
